<svg width="823" height="164" viewBox="0 0 823 164" fill="none" xmlns="http://www.w3.org/2000/svg">
<g clip-path="url(#clip0_415_2)">
<path d="M35.1 1.3999V11.7999C55 12.4999 67.2 25.7999 67.2 51.2999C67.2 77.0999 54.1 90.4999 33.4 90.4999H12.7V36.7999H0V100.8H32.7C61.5 100.8 79.9 83.8999 79.9 51.0999C79.9 18.9999 62.6 1.8999 35.1 1.3999Z" fill="black"/>
<path d="M99.9 1.3999H112.5V100.8H99.9V1.3999Z" fill="black"/>
<path d="M130.7 67.8001H143.2C146.6 85.0001 156.1 91.9001 172 91.9001C185.8 91.9001 194.3 85.8001 194.3 74.7001C194.3 62.8001 180.8 59.4001 166.3 55.5001C149.8 51.2001 132.2 46.3001 132.2 27.4001C132.2 10.6001 145.3 0.100098 165.4 0.100098C188.1 0.100098 203 12.3001 206.6 33.9001H194.5C191.4 17.8001 180.9 10.3001 165.4 10.3001C152.8 10.3001 144.7 16.1001 144.7 26.4001C144.7 37.5001 157.9 41.0001 172.1 44.9001C188.7 49.4001 206.8 54.7001 206.8 73.5001C206.8 91.3001 193.3 102.2 172.3 102.2C149.2 102.1 134.4 90.8001 130.7 67.8001Z" fill="black"/>
<path d="M224.7 1.3999H267.3C286.1 1.3999 298.1 11.5999 298.1 30.6999C298.1 49.4999 286.2 59.6999 267.4 59.6999H237.3V100.9H224.7V1.3999ZM237.4 11.7999V49.5999H267.1C278.7 49.5999 285.9 43.1999 285.9 30.6999C285.9 18.1999 278.8 11.7999 267.1 11.7999H237.4Z" fill="black"/>
<path d="M330 1.3999H344.8L381.3 100.8H367.5L358.4 75.0999H315.6L306.4 100.8H293.6L330 1.3999ZM319.2 65.2999H354.9L352.5 58.4999L337 14.4999L321.7 58.4999L319.2 65.2999Z" fill="black"/>
<path d="M406.7 11.7999H372.5V1.3999H453.3V11.7999H419.4V100.9H406.8V11.7999H406.7Z" fill="black"/>
<path d="M533.1 39.8C530.3 20.8 518.9 10.4 503 10.4C484 10.4 471.9 24.7 471.9 51.2C471.9 77.5 484.1 91.8 503 91.8C519.1 91.8 530.3 81 533.1 61.3H545.3C542.3 87.9 525.8 102.4 503 102.4C477.1 102.4 459.2 84.5 459.2 51.3C459.2 18.1 477 0 503 0C525.7 0 542.2 13.9 545.3 39.8H533.1Z" fill="black"/>
<path d="M563.5 1.3999H576.1V44.6999H623.8V1.3999H636.4V100.8H623.8V55.0999H576.1V100.8H563.5V1.3999Z" fill="black"/>
<path d="M659.2 1.3999H726V11.7999H671.9V44.5999H710.4V54.7999H671.9V90.4999H726V100.9H659.2V1.3999Z" fill="black"/>
<path d="M743 1.3999H776.8C805.1 1.3999 822.8 18.3999 822.8 51.0999C822.8 83.8999 804.5 100.8 775.6 100.8H743V1.3999ZM755.7 11.7999V90.4999H776.4C797.1 90.4999 810.2 77.0999 810.2 51.2999C810.2 25.1999 797.3 11.7999 776.4 11.7999H755.7Z" fill="black"/>
<path d="M28.1 1.2998H0V30.3998H5.1V5.6998H28C28.3 5.6998 28.7 5.6998 29 5.6998V1.2998C28.7 1.2998 28.4 1.2998 28.1 1.2998Z" fill="black"/>
<path d="M224.8 131.9H238.2C244 131.9 247.7 134.8 247.7 140.1C247.7 143.5 246 145.9 243.2 147.2C246.6 148.3 248.5 150.8 248.5 154.7C248.5 160.2 244.8 163.3 238.9 163.3H224.9V131.9H224.8ZM228.8 135.1V145.7H238C241.6 145.7 243.8 143.9 243.8 140.4C243.8 136.9 241.6 135.1 238 135.1H228.8ZM228.8 148.9V160H238.7C242.3 160 244.6 158.1 244.6 154.4C244.6 150.7 242.4 148.8 238.7 148.8H228.8V148.9Z" fill="black"/>
<path d="M253.5 152V131.8H257.4V152C257.4 157.4 260.8 160.3 265.4 160.3C270 160.3 273.4 157.4 273.4 152V131.8H277.2V152C277.2 159.4 272.4 163.6 265.3 163.6C258.4 163.7 253.5 159.4 253.5 152Z" fill="black"/>
<path d="M282.1 152.8H286C287.1 158.2 290.1 160.4 295.1 160.4C299.5 160.4 302.1 158.5 302.1 155C302.1 151.2 297.8 150.2 293.3 148.9C288.1 147.6 282.5 146 282.5 140C282.5 134.7 286.6 131.4 293 131.4C300.2 131.4 304.9 135.3 306 142.1H302.2C301.2 137 297.9 134.7 293 134.7C289 134.7 286.5 136.5 286.5 139.8C286.5 143.3 290.7 144.4 295.2 145.6C300.4 147 306.1 148.7 306.1 154.6C306.1 160.2 301.8 163.7 295.2 163.7C288 163.7 283.3 160.1 282.1 152.8Z" fill="black"/>
<path d="M311.8 131.9H315.8V163.3H311.8V131.9Z" fill="black"/>
<path d="M323 131.9H327.4L335.6 144.6L343.8 157.9L343.5 144.6V131.9H347.3V163.3H342.9L334.8 150.7L326.6 137.5L326.9 150.7V163.3H323V131.9Z" fill="black"/>
<path d="M354.3 131.9H375.4V135.2H358.3V145.6H370.5V148.8H358.3V160H375.4V163.3H354.3V131.9Z" fill="black"/>
<path d="M378.4 152.8H382.3C383.4 158.2 386.4 160.4 391.4 160.4C395.8 160.4 398.4 158.5 398.4 155C398.4 151.2 394.1 150.2 389.6 148.9C384.4 147.6 378.8 146 378.8 140C378.8 134.7 382.9 131.4 389.3 131.4C396.5 131.4 401.2 135.3 402.3 142.1H398.5C397.5 137 394.2 134.7 389.3 134.7C385.3 134.7 382.8 136.5 382.8 139.8C382.8 143.3 387 144.4 391.5 145.6C396.7 147 402.4 148.7 402.4 154.6C402.4 160.2 398.1 163.7 391.5 163.7C384.2 163.7 379.6 160.1 378.4 152.8Z" fill="black"/>
<path d="M406.2 152.8H410.1C411.2 158.2 414.2 160.4 419.2 160.4C423.6 160.4 426.2 158.5 426.2 155C426.2 151.2 421.9 150.2 417.4 148.9C412.2 147.6 406.6 146 406.6 140C406.6 134.7 410.7 131.4 417.1 131.4C424.3 131.4 429 135.3 430.1 142.1H426.3C425.3 137 422 134.7 417.1 134.7C413.1 134.7 410.6 136.5 410.6 139.8C410.6 143.3 414.8 144.4 419.3 145.6C424.5 147 430.2 148.7 430.2 154.6C430.2 160.2 425.9 163.7 419.3 163.7C412 163.7 407.4 160.1 406.2 152.8Z" fill="black"/>
<path d="M444.6 152.8H448.5C449.6 158.2 452.6 160.4 457.6 160.4C462 160.4 464.6 158.5 464.6 155C464.6 151.2 460.3 150.2 455.8 148.9C450.6 147.6 445 146 445 140C445 134.7 449.1 131.4 455.5 131.4C462.7 131.4 467.4 135.3 468.5 142.1H464.7C463.7 137 460.4 134.7 455.5 134.7C451.5 134.7 449 136.5 449 139.8C449 143.3 453.2 144.4 457.7 145.6C462.9 147 468.6 148.7 468.6 154.6C468.6 160.2 464.3 163.7 457.7 163.7C450.4 163.7 445.8 160.1 444.6 152.8Z" fill="black"/>
<path d="M480.9 135.1H470.1V131.8H495.6V135.1H484.9V163.2H480.9V135.1Z" fill="black"/>
<path d="M499.5 152V131.8H503.4V152C503.4 157.4 506.8 160.3 511.4 160.3C516 160.3 519.4 157.4 519.4 152V131.8H523.2V152C523.2 159.4 518.4 163.6 511.3 163.6C504.4 163.7 499.5 159.4 499.5 152Z" fill="black"/>
<path d="M530.1 131.9H540.8C549.7 131.9 555.3 137.3 555.3 147.6C555.3 158 549.5 163.3 540.4 163.3H530.1V131.9ZM534.1 135.1V160H540.6C547.1 160 551.3 155.8 551.3 147.6C551.3 139.3 547.2 135.1 540.6 135.1H534.1Z" fill="black"/>
<path d="M561.1 131.9H565.1V163.3H561.1V131.9Z" fill="black"/>
<path d="M570.9 147.6C570.9 137.1 576.6 131.5 584.8 131.5C593.1 131.5 598.7 137.2 598.7 147.6C598.7 158.1 593.1 163.7 584.8 163.7C576.6 163.7 570.9 158.1 570.9 147.6ZM594.6 147.6C594.6 139.3 590.8 134.7 584.7 134.7C578.6 134.7 574.8 139.2 574.8 147.6C574.8 155.9 578.6 160.4 584.7 160.4C590.8 160.4 594.6 155.9 594.6 147.6Z" fill="black"/>
</g>
<defs>
<clipPath id="clip0_415_2">
<rect width="822.9" height="163.7" fill="white"/>
</clipPath>
</defs>
</svg>
